<svg width="368" height="131" viewBox="0 0 368 131" fill="none" xmlns="http://www.w3.org/2000/svg">
<path d="M98.3589 110.418H95.3284V118.224H96.8516V115.289H98.3589C99.9774 115.289 100.945 114.178 100.945 112.845C100.945 111.513 99.9774 110.402 98.3589 110.402V110.418ZM98.2796 113.924H96.8516V111.782H98.2796C98.9777 111.782 99.4062 112.227 99.4062 112.861C99.4062 113.496 98.9619 113.924 98.2796 113.924Z" fill="black"/>
<path d="M108.371 112.813C108.371 111.512 107.435 110.417 105.832 110.417H102.77V118.224H104.293V115.114H105.388L106.911 118.224H108.672L106.927 114.86C107.689 114.59 108.355 113.908 108.355 112.813H108.371ZM105.737 113.845H104.293V111.782H105.737C106.403 111.782 106.848 112.21 106.848 112.813C106.848 113.416 106.403 113.845 105.737 113.845Z" fill="black"/>
<path d="M110.513 118.24H115.654V116.875H112.036V114.971H115.114V113.623H112.036V111.782H115.654V110.417H110.513V118.24Z" fill="black"/>
<path d="M120.652 113.67L119.731 113.543C119.414 113.496 119.16 113.385 119.001 113.242C118.843 113.083 118.763 112.877 118.763 112.686C118.763 112.147 119.16 111.703 119.969 111.703C120.493 111.703 121.08 111.766 121.572 112.242L122.54 111.29C121.873 110.64 121.096 110.386 120.017 110.386C118.335 110.386 117.304 111.369 117.304 112.75C117.304 113.4 117.494 113.908 117.859 114.289C118.208 114.622 118.7 114.844 119.366 114.94L120.302 115.066C120.667 115.114 120.842 115.193 121.001 115.336C121.159 115.495 121.239 115.717 121.239 116.003C121.239 116.621 120.763 116.97 119.858 116.97C119.128 116.97 118.462 116.812 117.97 116.304L116.986 117.288C117.748 118.065 118.652 118.319 119.842 118.319C121.477 118.319 122.746 117.462 122.746 115.955C122.746 115.257 122.556 114.686 122.143 114.305C121.81 114.003 121.366 113.797 120.652 113.702V113.67Z" fill="black"/>
<path d="M124.73 118.24H129.886V116.875H126.269V114.971H129.347V113.623H126.269V111.782H129.886V110.417H124.73V118.24Z" fill="black"/>
<path d="M136.391 115.209L133.282 110.417H131.933V118.24H133.456V113.448L136.55 118.24H137.915V110.417H136.391V115.209Z" fill="black"/>
<path d="M139.708 111.782H141.739V118.24H143.262V111.782H145.309V110.417H139.708V111.782Z" fill="black"/>
<path d="M147.102 118.24H152.243V116.875H148.625V114.971H151.703V113.623H148.625V111.782H152.243V110.417H147.102V118.24Z" fill="black"/>
<path d="M159.177 111.179C158.653 110.656 157.923 110.434 157.114 110.434H154.29V118.24H157.114C157.923 118.24 158.669 118.002 159.177 117.494C160.049 116.622 159.97 115.479 159.97 114.305C159.97 113.131 160.065 112.052 159.177 111.179ZM158.113 116.4C157.844 116.717 157.495 116.876 156.971 116.876H155.813V111.782H156.971C157.495 111.782 157.844 111.941 158.113 112.258C158.399 112.607 158.447 113.099 158.447 114.289C158.447 115.479 158.399 116.035 158.113 116.384V116.4Z" fill="black"/>
<path d="M169.76 114.226C170.157 114.035 170.728 113.48 170.728 112.607C170.728 111.274 169.839 110.417 168.316 110.417H165.174V118.224H168.443C169.839 118.224 170.839 117.431 170.839 115.971C170.839 114.924 170.236 114.432 169.76 114.21V114.226ZM166.698 111.782H168.189C168.84 111.782 169.205 112.147 169.205 112.686C169.205 113.226 168.84 113.591 168.189 113.591H166.698V111.798V111.782ZM168.284 116.875H166.698V114.955H168.284C168.982 114.955 169.3 115.384 169.3 115.907C169.3 116.431 168.966 116.875 168.284 116.875Z" fill="black"/>
<path d="M175.186 113.575L173.726 110.417H172.076L174.424 115.035V118.24H175.932V115.035L178.28 110.417H176.63L175.186 113.575Z" fill="black"/>
<path d="M195.448 128.411L196.099 128.474V129.299C195.924 129.601 195.591 129.823 195.194 129.823C194.226 129.823 193.957 128.903 193.957 127.697C193.957 126.332 194.369 125.539 195.289 125.539C196.019 125.539 196.4 125.888 196.638 126.776H197.209L197.162 125.015H196.638C196.59 125.158 196.543 125.237 196.432 125.237C196.194 125.237 195.908 124.952 195.21 124.952C193.766 124.952 192.624 125.888 192.624 127.728C192.624 129.569 193.576 130.457 195.036 130.457C195.845 130.457 196.21 130.093 196.448 130.093C196.606 130.093 196.67 130.235 196.717 130.378H197.32V128.458L197.796 128.411V127.824H195.448V128.411Z" fill="black"/>
<path d="M200.033 126.459C198.954 126.459 198.145 127.205 198.145 128.522C198.145 129.68 198.812 130.458 200.049 130.458C200.859 130.458 201.43 130.045 201.652 129.331L201.112 129.141C200.922 129.554 200.716 129.823 200.24 129.823C199.557 129.823 199.399 129.268 199.383 128.57H201.668C201.668 128.459 201.668 128.252 201.668 128.157C201.668 126.999 201.001 126.475 200.018 126.475L200.033 126.459ZM200.478 128.062H199.383C199.383 127.427 199.542 126.92 199.986 126.92C200.382 126.92 200.478 127.221 200.478 127.919V128.062Z" fill="black"/>
<path d="M206.206 127.712C206.206 126.824 205.777 126.475 205.032 126.475C204.286 126.475 203.937 126.855 203.746 127.252H203.699L203.651 126.522L202.176 126.57V127.093L202.652 127.141V129.775L202.176 129.823V130.362H204.222V129.823L203.842 129.775V128.03C203.842 127.411 204.159 127.173 204.571 127.173C204.984 127.173 205.047 127.442 205.047 127.855V129.775L204.683 129.823V130.362H206.698V129.823L206.222 129.775V127.696L206.206 127.712Z" fill="black"/>
<path d="M208.935 126.459C207.856 126.459 207.047 127.205 207.047 128.522C207.047 129.68 207.713 130.458 208.951 130.458C209.76 130.458 210.331 130.045 210.553 129.331L210.014 129.141C209.839 129.554 209.617 129.823 209.141 129.823C208.459 129.823 208.3 129.268 208.284 128.57H210.569C210.569 128.459 210.569 128.252 210.569 128.157C210.569 126.999 209.903 126.475 208.919 126.475L208.935 126.459ZM209.395 128.062H208.3C208.3 127.427 208.459 126.92 208.903 126.92C209.3 126.92 209.395 127.221 209.395 127.919V128.062Z" fill="black"/>
<path d="M215.583 125.618L216.075 125.665V127.331H214.218V125.665L214.726 125.618V125.031H212.457V125.618L212.965 125.665V129.727L212.457 129.791V130.362H214.726V129.791L214.218 129.727V127.998H216.075V129.727L215.583 129.791V130.362H217.836V129.791L217.344 129.727V125.665L217.836 125.618V125.031H215.583V125.618Z" fill="black"/>
<path d="M221.819 129.886C221.66 129.886 221.645 129.759 221.645 129.489V127.918C221.645 126.824 221.073 126.475 220.058 126.475C219.042 126.475 218.519 126.887 218.519 127.49C218.519 127.823 218.709 128.093 219.106 128.093C219.503 128.093 219.693 127.871 219.693 127.569C219.693 127.474 219.677 127.379 219.645 127.268H219.36C219.36 127.268 219.36 127.189 219.36 127.157C219.36 126.966 219.566 126.903 219.788 126.903C220.328 126.903 220.47 127.252 220.47 127.839V128.394H219.931C218.931 128.394 218.344 128.633 218.344 129.473C218.344 130.203 218.852 130.473 219.471 130.473C220.121 130.473 220.407 130.156 220.55 129.902C220.645 130.267 220.851 130.473 221.327 130.473C221.708 130.473 222.041 130.33 222.184 130.235L222.073 129.838C221.962 129.886 221.883 129.902 221.819 129.902V129.886ZM220.47 129.251C220.47 129.711 220.232 129.886 219.979 129.886C219.677 129.886 219.566 129.727 219.566 129.362C219.566 128.966 219.709 128.775 220.185 128.775H220.486V129.251H220.47Z" fill="black"/>
<path d="M225.976 129.886C225.817 129.886 225.802 129.759 225.802 129.489V127.918C225.802 126.824 225.214 126.475 224.215 126.475C223.215 126.475 222.676 126.887 222.676 127.49C222.676 127.823 222.866 128.093 223.279 128.093C223.691 128.093 223.866 127.871 223.866 127.569C223.866 127.474 223.85 127.379 223.818 127.268H223.533C223.533 127.268 223.533 127.189 223.533 127.157C223.533 126.966 223.739 126.903 223.961 126.903C224.5 126.903 224.643 127.252 224.643 127.839V128.394H224.104C223.104 128.394 222.517 128.633 222.517 129.473C222.517 130.203 223.025 130.473 223.644 130.473C224.294 130.473 224.58 130.156 224.723 129.902C224.818 130.267 225.024 130.473 225.5 130.473C225.881 130.473 226.214 130.33 226.357 130.235L226.246 129.838C226.135 129.886 226.055 129.902 225.992 129.902L225.976 129.886ZM224.627 129.251C224.627 129.711 224.389 129.886 224.135 129.886C223.834 129.886 223.723 129.727 223.723 129.362C223.723 128.966 223.866 128.775 224.342 128.775H224.643V129.251H224.627Z" fill="black"/>
<path d="M228.293 127.823C227.88 127.744 227.547 127.68 227.547 127.363C227.547 127.078 227.833 126.966 228.118 126.966C228.61 126.966 228.88 127.204 229.07 127.696H229.53V126.522H229.134C229.102 126.649 229.086 126.713 228.975 126.713C228.927 126.713 228.864 126.713 228.816 126.665C228.658 126.586 228.436 126.475 228.102 126.475C227.293 126.475 226.69 126.982 226.69 127.776C226.69 128.791 227.484 128.918 228.118 129.029C228.547 129.109 228.896 129.172 228.896 129.505C228.896 129.791 228.689 129.918 228.261 129.918C227.658 129.918 227.277 129.6 227.15 129.124H226.674V130.394H227.119C227.166 130.219 227.198 130.172 227.277 130.172C227.325 130.172 227.372 130.172 227.42 130.203C227.61 130.299 227.88 130.441 228.356 130.441C229.197 130.441 229.752 129.949 229.752 129.109C229.752 128.093 228.927 127.934 228.293 127.807V127.823Z" fill="black"/>
<path d="M231.91 125.031V125.269L232.561 125.332V130.092L231.91 130.14V130.362H234.243V130.14L233.18 130.076V127.839H233.56C234.322 127.839 234.449 128.03 234.576 128.855H234.766V126.602H234.592C234.465 127.284 234.322 127.538 233.655 127.538H233.18V125.301H234.1C234.909 125.301 235.179 125.475 235.369 126.411H235.575L235.512 125.031H231.91Z" fill="black"/>
<path d="M237.654 126.506C236.639 126.506 235.956 127.3 235.956 128.49C235.956 129.68 236.543 130.441 237.606 130.441C238.67 130.441 239.304 129.648 239.304 128.458C239.304 127.268 238.749 126.506 237.654 126.506ZM237.638 130.108C236.766 130.108 236.575 129.251 236.575 128.458C236.575 127.665 236.765 126.871 237.606 126.871C238.447 126.871 238.67 127.744 238.67 128.521C238.67 129.299 238.479 130.124 237.638 130.124V130.108Z" fill="black"/>
<path d="M243.302 126.57L242.192 126.602V126.856L242.763 126.904V128.934C242.763 129.648 242.255 130.013 241.652 130.013C241.049 130.013 240.875 129.744 240.875 129.204V126.57L239.796 126.602V126.856L240.335 126.904V129.188C240.335 130.013 240.684 130.442 241.494 130.442C242.112 130.442 242.557 130.093 242.811 129.728L242.858 130.362H243.826V130.109L243.318 130.061V126.57H243.302Z" fill="black"/>
<path d="M247.904 127.823C247.904 126.935 247.587 126.506 246.762 126.506C246.095 126.506 245.651 126.903 245.413 127.268L245.381 126.554L244.397 126.602V126.84L244.889 126.887V130.045L244.397 130.092V130.346H246.016V130.092L245.445 130.045V127.918C245.445 127.3 245.968 126.903 246.571 126.903C247.206 126.903 247.349 127.189 247.349 127.807V130.045L246.793 130.092V130.346H248.412V130.092L247.888 130.045V127.807L247.904 127.823Z" fill="black"/>
<path d="M252.22 124.65L251.03 124.682V124.92L251.664 124.984V126.983C251.363 126.634 250.998 126.507 250.57 126.507C249.602 126.507 248.967 127.253 248.967 128.554C248.967 129.68 249.427 130.458 250.427 130.458C251.093 130.458 251.458 130.109 251.664 129.775L251.696 130.362H252.775V130.109L252.22 130.061V124.65ZM251.664 129.03C251.664 129.617 251.141 130.029 250.585 130.029C249.745 130.029 249.586 129.204 249.586 128.458C249.586 127.491 249.856 126.856 250.681 126.856C251.173 126.856 251.664 127.126 251.664 127.84V129.014V129.03Z" fill="black"/>
<path d="M256.282 130.156C256.075 130.156 256.028 130.061 256.028 129.711V127.95C256.028 126.919 255.663 126.506 254.758 126.506C253.997 126.506 253.473 126.903 253.473 127.442C253.473 127.744 253.648 127.871 253.87 127.871C254.06 127.871 254.251 127.76 254.251 127.506C254.251 127.427 254.235 127.331 254.203 127.236H253.965C253.965 127.236 253.965 127.173 253.965 127.141C253.965 126.84 254.457 126.792 254.679 126.792C255.298 126.792 255.472 127.173 255.472 127.855V128.347H254.949C254.028 128.347 253.314 128.633 253.314 129.473C253.314 130.172 253.79 130.441 254.378 130.441C254.774 130.441 255.218 130.283 255.504 129.902C255.552 130.299 255.79 130.441 256.155 130.441C256.329 130.441 256.472 130.41 256.599 130.346L256.551 130.108C256.472 130.14 256.393 130.156 256.297 130.156H256.282ZM255.472 129.267C255.472 129.838 255.012 130.092 254.6 130.092C254.155 130.092 253.949 129.87 253.949 129.426C253.949 128.982 254.219 128.68 254.965 128.68H255.472V129.267Z" fill="black"/>
<path d="M258.265 130.092C257.964 130.092 257.837 129.918 257.837 129.489V126.935H258.678V126.617H257.837V125.459H257.757L257.281 125.618V126.617H256.71V126.935H257.281V129.616C257.281 130.171 257.567 130.473 258.17 130.473C258.63 130.473 258.947 130.251 259.09 129.648L258.836 129.568C258.709 129.997 258.567 130.108 258.281 130.108L258.265 130.092Z" fill="black"/>
<path d="M260.645 126.554L259.519 126.601V126.839L260.09 126.903V130.06L259.519 130.124V130.362H261.232V130.124L260.645 130.06V126.554Z" fill="black"/>
<path d="M260.677 125.237C260.677 124.936 260.502 124.841 260.296 124.841C260.042 124.841 259.915 125.015 259.915 125.237C259.915 125.46 260.026 125.618 260.296 125.618C260.534 125.618 260.677 125.491 260.677 125.237Z" fill="black"/>
<path d="M263.485 126.506C262.47 126.506 261.788 127.3 261.788 128.49C261.788 129.68 262.375 130.441 263.438 130.441C264.501 130.441 265.136 129.648 265.136 128.458C265.136 127.268 264.58 126.506 263.485 126.506ZM263.469 130.108C262.597 130.108 262.406 129.251 262.406 128.458C262.406 127.665 262.597 126.871 263.438 126.871C264.279 126.871 264.501 127.744 264.501 128.521C264.501 129.299 264.31 130.124 263.469 130.124V130.108Z" fill="black"/>
<path d="M269.309 127.823C269.309 126.935 268.991 126.506 268.166 126.506C267.5 126.506 267.055 126.903 266.817 127.268L266.786 126.554L265.802 126.602V126.84L266.294 126.887V130.045L265.802 130.092V130.346H267.42V130.092L266.849 130.045V127.918C266.849 127.3 267.373 126.903 267.976 126.903C268.61 126.903 268.769 127.189 268.769 127.807V130.045L268.214 130.092V130.346H269.832V130.092L269.309 130.045V127.807V127.823Z" fill="black"/>
<path d="M205.317 111.433L192.56 111.417L190.244 115.416L203.001 115.431L200.335 120.033H204.968L216.249 100.517H211.616L205.317 111.433Z" fill="black"/>
<path d="M214.663 111.417H211.267L208.951 115.416L212.346 115.431L209.696 120.033H214.314L225.595 100.517H220.962L214.663 111.417Z" fill="black"/>
<path d="M216.535 120.033H221.168L232.434 100.517H227.801L216.535 120.033Z" fill="black"/>
<path d="M229.181 108.323V111.417H227.372L225.056 115.416L229.181 115.431V120.033H234.592L245.873 100.517H241.24L233.085 114.638V101.611L229.181 108.323Z" fill="black"/>
<path d="M253.616 101.643L249.046 109.481C248.364 110.639 249.205 112.083 250.538 112.083H256.615L254.568 115.479C254.378 115.812 254.013 116.002 253.632 116.002H246.635V101.659L242.731 108.355V111.369V111.401H240.938L238.622 115.399H242.747V120.017H255.441C256.25 120.017 256.996 119.588 257.408 118.89L262.248 110.608C262.914 109.465 262.089 108.021 260.756 108.021H254.885L256.599 105.102C256.758 104.832 257.059 104.658 257.376 104.658H270.07L272.498 100.5H255.599C254.79 100.5 254.044 100.929 253.632 101.627L253.616 101.643Z" fill="black"/>
<path d="M365.922 53.995H343.502C342.978 53.995 342.55 53.5666 342.55 53.043V41.6981C342.55 41.1745 342.978 40.7461 343.502 40.7461H361.003C362.05 40.7461 362.891 39.8893 362.891 38.858V29.4013C362.891 28.3541 362.034 27.5132 361.003 27.5132H343.502C342.978 27.5132 342.55 27.0848 342.55 26.5611V15.2163C342.55 14.6927 342.978 14.2643 343.502 14.2643H365.541C366.588 14.2643 367.429 13.4075 367.429 12.3762V2.9195C367.429 1.87229 366.572 1.03135 365.541 1.03135H331.205C330.158 1.03135 329.317 1.88816 329.317 2.9195V9.82159C328.587 8.64745 327.73 7.53676 326.715 6.52128C323.018 2.8243 318.289 1.03135 312.339 1.03135H291.522C290.475 1.03135 289.634 1.88816 289.634 2.9195V56.5337L275.147 2.4435C274.862 1.49149 274.291 1.03135 273.354 1.03135H260.677C259.82 1.03135 259.169 1.50735 258.884 2.4435L247.174 45.9187C246.889 45.2206 246.222 44.7287 245.429 44.7287H235.782C234.623 44.7287 233.719 45.6807 233.703 46.839C233.592 51.6308 230.038 54.947 224.818 54.947C220.661 54.947 217.916 53.4396 216.488 50.4091C215.631 48.4257 215.171 43.031 215.171 34.1455C215.171 25.2601 215.647 19.8653 216.488 17.882C217.9 14.8514 220.645 13.344 224.818 13.344C230.038 13.344 233.608 16.6444 233.703 21.452C233.735 22.6103 234.623 23.5623 235.782 23.5623H245.429C246.46 23.5623 247.333 22.7531 247.333 21.7217C247.333 15.0735 245.254 9.75813 241.002 5.87074C236.75 1.99923 231.355 0 224.818 0C214.98 0 207.697 4.91873 204.286 12.5824C203.858 13.5186 203.477 14.661 203.144 15.9779C201.525 6.34675 193.893 0 182.199 0C175.678 0 170.378 1.79296 166.301 5.29954C165.015 6.44195 163.952 7.67957 163.08 8.98065V2.9195C163.08 1.87229 162.223 1.03135 161.192 1.03135H128.077C127.03 1.03135 126.189 1.88816 126.189 2.9195V65.3557C126.189 66.4029 127.046 67.2438 128.077 67.2438H137.534C138.581 67.2438 139.422 66.387 139.422 65.3557V41.6981C139.422 41.1745 139.851 40.7461 140.374 40.7461H155.892C156.939 40.7461 157.78 39.8893 157.78 38.858V29.4013C157.78 28.3541 156.923 27.5132 155.892 27.5132H140.374C139.851 27.5132 139.422 27.0848 139.422 26.5611V15.2163C139.422 14.6927 139.851 14.2643 140.374 14.2643H160.763C160.43 15.6447 160.255 17.0886 160.255 18.6118C160.255 29.0205 165.936 35.7322 177.185 38.6676C182.961 40.1749 186.737 41.6029 188.53 42.9199C190.228 44.2527 191.085 46.1409 191.085 48.505C191.085 52.567 187.404 55.3119 181.723 55.3119C176.043 55.3119 172.552 52.1861 172.552 47.553V45.6649C172.552 44.6176 171.695 43.7767 170.664 43.7767H160.636C159.589 43.7767 158.748 44.6335 158.748 45.6649V47.553C158.748 53.7094 160.922 58.6281 165.19 62.4996C169.442 66.3711 174.932 68.2752 181.739 68.2752C188.546 68.2752 194.226 66.387 198.479 62.5948C201.033 60.3259 202.794 57.5968 203.794 54.4234C203.953 54.8677 204.111 55.2961 204.286 55.6769C207.697 63.3406 214.98 68.2593 224.818 68.2593C231.339 68.2593 236.734 66.2759 241.002 62.2933C241.97 61.4048 242.811 60.4528 243.556 59.4214L242.351 63.8959C242.065 64.8479 241.97 65.4985 241.97 65.7841C241.97 66.7361 242.636 67.1962 243.858 67.1962H253.791C254.743 67.1962 255.298 66.7202 255.584 65.7841L259.328 49.5046H274.878L278.368 65.7841C278.654 66.7361 279.32 67.1962 280.161 67.1962H290.094C290.427 67.1962 290.713 67.1486 290.967 67.0851C291.141 67.1486 291.332 67.1962 291.522 67.1962H300.979C302.026 67.1962 302.867 66.3394 302.867 65.3081V41.6505C302.867 41.1269 303.295 40.6985 303.819 40.6985H312.339C318.289 40.6985 323.034 38.9056 326.715 35.2086C327.73 34.1931 328.587 33.0824 329.317 31.9083V65.2922C329.317 66.3394 330.174 67.1803 331.205 67.1803H365.922C366.969 67.1803 367.81 66.3235 367.81 65.2922V55.8355C367.81 54.7883 366.953 53.9474 365.922 53.9474V53.995ZM201.636 36.1923C198.891 32.2732 194.226 29.4648 187.293 27.6084C176.789 24.9586 173.948 22.7848 173.948 19.0878C173.948 15.0259 176.884 12.8522 182.183 12.8522C186.817 12.8522 190.133 15.7875 190.133 19.9447V20.4207C190.133 21.4679 190.99 22.3088 192.021 22.3088H201.573C201.779 22.3088 201.954 22.2454 202.128 22.1978C201.795 25.5457 201.604 29.4965 201.604 34.1296C201.604 34.8437 201.604 35.5101 201.62 36.1923H201.636ZM262.121 37.3348L265.453 22.8959C265.913 20.9284 268.721 20.9443 269.15 22.9276L272.244 37.3506H262.121V37.3348ZM311.848 27.5132H303.803C303.137 27.5132 302.851 27.2276 302.851 26.5611V15.2163C302.851 14.5499 303.137 14.2643 303.803 14.2643H311.848C315.719 14.2643 318.464 17.0093 318.464 20.8808C318.464 24.7523 315.719 27.4973 311.848 27.4973V27.5132Z" fill="black"/>
<path d="M79.9216 53.0268C68.7513 55.1212 57.3906 54.0264 46.9026 49.3616C46.141 49.0125 45.2683 49.552 45.2683 50.4088V60.8333C45.2683 61.2934 45.538 61.706 45.9347 61.8964C56.8035 66.9738 68.6402 68.1638 80.2706 65.9266C80.7308 65.8314 81.0798 65.4188 81.0798 64.9428V53.9788C81.0798 53.3759 80.5245 52.9157 79.9216 53.0268Z" fill="black"/>
<path d="M122.302 62.9599L122.381 53.7413C122.334 53.535 122.286 53.3446 122.238 53.1383C118.986 47.3469 111.1 47.7118 105.324 47.8864C99.1362 48.0768 93.3448 49.6 87.474 51.2025C87.0456 51.3136 86.7441 51.7103 86.7441 52.1546V63.0868C86.7441 63.7374 87.363 64.1975 87.9818 64.0388C93.6938 62.4839 99.3107 61.04 105.324 60.8655C110.195 60.7068 116.574 60.4371 120.398 63.8326C121.144 64.4831 122.302 63.9595 122.302 62.9758V62.9599Z" fill="black"/>
<path d="M79.9216 30.0361C68.7513 32.1146 57.3906 31.0357 46.9026 26.3708C46.141 26.0218 45.2683 26.5612 45.2683 27.4181V37.8426C45.2683 38.3027 45.538 38.7153 45.9347 38.9057C56.8035 43.9831 68.6402 45.1731 80.2706 42.9359C80.7308 42.8407 81.0798 42.4281 81.0798 41.9521V30.9881C81.0798 30.3852 80.5245 29.925 79.9216 30.0361Z" fill="black"/>
<path d="M87.9818 41.0318C93.6938 39.4768 99.3107 38.0329 105.324 37.8584C110.195 37.6997 116.574 37.43 120.398 40.8255C121.144 41.476 122.302 40.9524 122.302 39.9687L122.381 30.75C122.334 30.5438 122.286 30.3534 122.238 30.1471C118.986 24.3557 111.1 24.7206 105.324 24.8952C99.1362 25.0856 93.3448 26.6088 87.474 28.2113C87.0456 28.3224 86.7441 28.7191 86.7441 29.1634V40.0956C86.7441 40.7462 87.363 41.2063 87.9818 41.0476V41.0318Z" fill="black"/>
<path d="M79.9216 7.04487C68.7513 9.1393 57.3906 8.04449 46.9026 3.37962C46.141 3.03055 45.2683 3.57003 45.2683 4.42684V14.8514C45.2683 15.3115 45.538 15.7241 45.9347 15.9145C56.8035 20.9919 68.6402 22.1819 80.2706 19.9446C80.7308 19.8494 81.0798 19.4369 81.0798 18.9609V7.99688C81.0798 7.39394 80.5245 6.9338 79.9216 7.04487Z" fill="black"/>
<path d="M87.9818 18.0401C93.6938 16.4851 99.3107 15.0412 105.324 14.8667C110.195 14.708 116.574 14.4383 120.398 17.8338C121.144 18.4843 122.302 17.9607 122.302 16.977L122.381 7.75834C122.334 7.55207 122.286 7.36167 122.238 7.1554C118.986 1.36399 111.1 1.72893 105.324 1.90346C99.1362 2.09387 93.3448 3.61709 87.474 5.21964C87.0456 5.33071 86.7441 5.72738 86.7441 6.17165V17.1039C86.7441 17.7545 87.363 18.2146 87.9818 18.0559V18.0401Z" fill="black"/>
<path d="M357.782 74.1616C357.274 74.0188 356.989 73.9236 356.925 73.8918C356.449 73.749 356.1 73.6221 355.878 73.5269C355.656 73.4317 355.481 73.3365 355.37 73.2413C355.259 73.1461 355.212 73.0191 355.212 72.8763C355.212 72.6859 355.291 72.5431 355.434 72.4321C355.576 72.321 355.783 72.2734 356.053 72.2734C356.433 72.2734 356.719 72.3686 356.941 72.5749C357.163 72.7811 357.274 72.9874 357.274 73.2413C357.274 73.2413 357.29 73.3523 357.322 73.3841C357.354 73.4158 357.401 73.4317 357.449 73.4317H359.337C359.337 73.4317 359.432 73.4158 359.464 73.3841C359.496 73.3523 359.511 73.3047 359.511 73.2571V73.1461C359.511 72.5907 359.369 72.0989 359.067 71.6705C358.766 71.2421 358.369 70.9088 357.845 70.6708C357.338 70.4328 356.751 70.3218 356.116 70.3218C355.481 70.3218 354.974 70.4328 354.498 70.6391C354.022 70.8454 353.641 71.1468 353.355 71.5435C353.085 71.9402 352.943 72.3845 352.943 72.9081C352.943 73.6856 353.212 74.2726 353.752 74.6693C354.291 75.0818 354.974 75.3992 355.767 75.6372L356.116 75.7324C356.544 75.8593 356.846 75.9704 357.005 76.0656C357.163 76.1608 357.243 76.2877 357.243 76.4623C357.243 76.6209 357.179 76.7637 357.052 76.8748C356.925 77.0017 356.703 77.0652 356.402 77.0652C356.005 77.0652 355.688 76.9859 355.45 76.7955C355.212 76.6209 355.085 76.4147 355.085 76.1925V76.1132C355.085 76.1132 355.069 76.018 355.037 75.9863C355.005 75.9545 354.958 75.9386 354.91 75.9386H353.022C353.022 75.9386 352.927 75.9545 352.895 75.9863C352.863 76.018 352.847 76.0656 352.847 76.1132V76.2877C352.847 76.8272 352.99 77.3032 353.26 77.7316C353.53 78.16 353.942 78.4615 354.45 78.6836C354.958 78.9058 355.561 79.0168 356.243 79.0168C356.925 79.0168 357.481 78.9058 357.972 78.6995C358.464 78.4932 358.845 78.1917 359.131 77.7951C359.4 77.3984 359.543 76.9383 359.543 76.3829C359.543 75.8276 359.369 75.3516 359.035 74.9549C358.702 74.5582 358.274 74.2885 357.766 74.1457L357.782 74.1616Z" fill="black"/>
<path d="M367.635 70.417H365.731C365.636 70.417 365.557 70.4646 365.509 70.5439L363.97 73.0192C363.97 73.0192 363.923 73.0668 363.891 73.0192L362.352 70.5439C362.304 70.4646 362.225 70.417 362.13 70.417H360.226C360.226 70.417 360.13 70.4329 360.099 70.4646C360.067 70.4963 360.051 70.5439 360.051 70.5915V78.7471C360.051 78.7471 360.067 78.8423 360.099 78.874C360.13 78.9058 360.178 78.9216 360.226 78.9216H362.145C362.145 78.9216 362.241 78.9058 362.272 78.874C362.304 78.8423 362.32 78.7947 362.32 78.7471V74.3202C362.32 74.3202 362.32 74.2726 362.352 74.2726C362.368 74.2726 362.383 74.2726 362.399 74.3044L363.224 75.6531C363.272 75.7324 363.351 75.78 363.447 75.78H364.367C364.462 75.78 364.541 75.7324 364.589 75.6531L365.414 74.3044C365.414 74.3044 365.446 74.2726 365.462 74.2726C365.478 74.2726 365.493 74.2885 365.493 74.3202V78.7471C365.493 78.7471 365.509 78.8423 365.541 78.874C365.573 78.9058 365.62 78.9216 365.668 78.9216H367.588C367.588 78.9216 367.683 78.9058 367.715 78.874C367.746 78.8423 367.762 78.7947 367.762 78.7471V70.5915C367.762 70.5915 367.746 70.4963 367.715 70.4646C367.683 70.4329 367.635 70.417 367.588 70.417H367.635Z" fill="black"/>
<path d="M32.7334 37.6361C39.2546 33.8598 42.5708 28.2747 42.5708 20.8966C42.5708 14.9306 40.7779 10.2023 37.0809 6.52119C33.3839 2.82421 28.6556 1.03125 22.7055 1.03125H1.88816C0.856811 1.03125 0 1.87219 0 2.91941V65.3556C0 66.4028 0.856811 67.2437 1.88816 67.2437H11.3448C12.392 67.2437 13.233 66.3869 13.233 65.3556V15.2162C13.233 14.6926 13.6614 14.2642 14.185 14.2642H22.0391C25.7202 14.2642 28.8301 17.1996 28.846 20.8807C28.846 24.7681 26.101 27.5131 22.2295 27.5131H22.2136C18.5008 27.5131 15.8986 31.1942 17.1521 34.7008L28.1954 65.546C28.6714 66.6884 29.5124 67.2437 30.5596 67.2437H40.0163C41.4284 67.2437 42.3804 66.2917 42.3804 65.07C42.3804 64.6891 42.19 64.1179 41.9044 63.277L32.1622 40.7619C31.8766 40.0003 31.6861 39.4291 31.6861 38.9689C31.6861 38.5088 32.067 38.0169 32.7334 37.6361Z" fill="black"/>
</svg>
